<svg width="20" height="20" viewBox="0 0 20 20" fill="none" xmlns="http://www.w3.org/2000/svg">
<path d="M2.06912 9.98904C2.44272 11.125 3.15049 12.1735 3.72024 12.7622C3.73478 13.5725 3.95171 14.6881 4.78886 15.5333C5.72961 16.4831 7.3064 16.9487 9.78274 16.4885C12.5025 16.8082 14.2086 16.2624 15.194 15.2976C16.1333 14.378 16.3176 13.1752 16.1979 12.2972C16.4705 11.4933 16.7923 10.885 17.0911 10.3202C17.218 10.0803 17.3407 9.84826 17.4538 9.6124C17.6426 9.21846 17.8045 8.80695 17.8546 8.363C17.9062 7.90468 17.8357 7.44283 17.6096 6.95296C17.1999 6.06518 16.5541 5.59679 15.9033 5.39687C15.5646 5.29283 15.2307 5.26287 14.9335 5.27669C14.7887 4.47088 14.291 3.407 13.0272 2.795C12.1461 2.36831 11.3646 2.48801 10.7686 2.83293C10.5244 2.97424 10.3146 3.15081 10.1398 3.33686C9.9127 3.04897 9.62336 2.76859 9.27273 2.55746C8.56279 2.12997 7.64526 2.01706 6.63162 2.59991C5.2627 3.38704 4.87364 4.60174 4.85887 5.5694C4.30354 5.43807 3.59689 5.49872 2.89086 6.0891C1.6056 7.1638 1.65234 8.72177 2.06912 9.98904Z" fill="white" stroke="#D3D3D3" stroke-width="1.08396" stroke-linecap="round" stroke-linejoin="round"/>
<ellipse cx="1.21221" cy="1.42217" rx="1.21221" ry="1.42217" transform="matrix(0.991199 -0.0275559 0.0254032 1.0075 6.91309 4.31543)" fill="#9E9C9D"/>
<ellipse cx="1.21221" cy="1.42217" rx="1.21221" ry="1.42217" transform="matrix(0.991199 -0.0275559 0.0254032 1.0075 3.31543 7.14844)" fill="#9E9C9D"/>
<ellipse cx="1.21221" cy="1.42217" rx="1.21221" ry="1.42217" transform="matrix(0.991199 -0.0275559 0.0254032 1.0075 10.959 4.31543)" fill="#9E9C9D"/>
<ellipse cx="1.21221" cy="1.42217" rx="1.21221" ry="1.42217" transform="matrix(0.991199 -0.0275559 0.0254032 1.0075 14.1074 7.14844)" fill="#9E9C9D"/>
<path d="M7.34404 10.1956C5.73519 10.5739 5.62655 12.3061 6.24452 13.4091C6.86249 14.5121 7.87094 14.3999 8.55335 13.9805C9.09929 13.645 9.8297 13.7689 10.1267 13.8728C12.5547 14.862 14.1285 13.616 13.9286 11.6987C13.7687 10.1649 12.3497 9.75975 11.6602 9.74893C11.2739 9.12384 10.3738 8.88637 9.97207 8.84577C9.10299 8.68656 8.66309 9.34836 8.40831 9.74712C8.20448 10.0661 7.61387 10.179 7.34404 10.1956Z" fill="#9E9C9D"/>
</svg>
