<svg width="34" height="34" viewBox="0 0 34 34" fill="none" xmlns="http://www.w3.org/2000/svg">
<path d="M27.6247 19.8327V16.041C27.6247 14.1554 27.6247 13.2126 27.0389 12.6268C26.4531 12.041 25.5103 12.041 23.6247 12.041H19.3649C18.5474 12.041 18.1386 12.041 17.7711 11.8888C17.4035 11.7365 17.1145 11.4475 16.5364 10.8694L14.6296 8.96259C14.0515 8.38453 13.7625 8.0955 13.3949 7.94326C13.0274 7.79102 12.6187 7.79102 11.8012 7.79102H8.95801C7.07239 7.79102 6.12958 7.79102 5.54379 8.3768C4.95801 8.96259 4.95801 9.9054 4.95801 11.791V22.2077C4.95801 24.0933 4.95801 25.0361 5.54379 25.6219C6.12958 26.2077 7.07239 26.2077 8.95801 26.2077H21.2497" stroke="#949494" stroke-width="1.5" stroke-linecap="round"/>
<path d="M24.083 26.2077H27.6247M27.6247 26.2077H31.1663M27.6247 26.2077V29.7493M27.6247 26.2077V22.666" stroke="#949494" stroke-width="1.5" stroke-linecap="round" stroke-linejoin="round"/>
</svg>
