<svg width="26" height="26" viewBox="0 0 26 26" fill="none" xmlns="http://www.w3.org/2000/svg">
<path d="M7.2216 15.5034H4.89606C4.4454 15.5034 4.08008 15.1381 4.08008 14.6874V9.79156C4.08008 9.34091 4.4454 8.97559 4.89606 8.97559H7.2216C7.28919 8.97559 7.34399 9.03038 7.34399 9.09798V15.381C7.34399 15.4486 7.28919 15.5034 7.2216 15.5034Z" stroke="#9E9C9D" stroke-width="1.63196" stroke-linecap="round"/>
<path d="M7.34375 8.97552L8.83866 6.73315C8.92802 6.59911 8.97571 6.44162 8.97571 6.28053V4.07965C8.97571 3.629 9.34103 3.26367 9.79168 3.26367H10.6077C11.509 3.26367 12.2396 3.99432 12.2396 4.89563V8.97552" stroke="#9E9C9D" stroke-width="1.63196" stroke-linecap="round"/>
<path d="M10.6077 8.97559H14.4962C15.4689 8.97559 16.2256 9.82105 16.1182 10.7878L15.6648 14.8677C15.573 15.6941 14.8744 16.3194 14.0429 16.3194H10.9457C10.7292 16.3194 10.5217 16.2334 10.3687 16.0804L10.0307 15.7424C9.87765 15.5894 9.67011 15.5034 9.4537 15.5034H7.34375" stroke="#9E9C9D" stroke-width="1.63196" stroke-linecap="round"/>
</svg>
