<svg width="34" height="32" viewBox="0 0 34 32" fill="none" xmlns="http://www.w3.org/2000/svg">
<path d="M4.96777 27.7372C5.49405 24.6 7.05477 21.7552 9.37834 19.6977C11.7019 17.6403 14.6413 16.5004 17.685 16.4766C20.7225 16.484 23.6587 17.6203 25.97 19.6827C28.2813 21.7452 29.8174 24.5997 30.3043 27.7372" fill="#FF865D"/>
<path d="M1.3623 31.2754H33.1532" stroke="#525252" stroke-width="0.943962" stroke-linecap="round" stroke-linejoin="round"/>
<path d="M6.37702 20.5766C4.74943 22.5116 3.64914 24.8522 3.20703 27.3707H31.3089C30.7688 24.0452 29.0651 21.0197 26.5015 18.8337C23.9379 16.6477 20.6812 15.4434 17.3122 15.4355C14.7723 15.4546 12.2979 16.1432 10.1306 17.4117" stroke="#525252" stroke-width="0.943962" stroke-linecap="round" stroke-linejoin="round"/>
<path d="M17.3123 15.3257C18.8703 15.3257 20.1333 14.0626 20.1333 12.5046C20.1333 10.9466 18.8703 9.68359 17.3123 9.68359C15.7542 9.68359 14.4912 10.9466 14.4912 12.5046C14.4912 14.0626 15.7542 15.3257 17.3123 15.3257Z" fill="white" stroke="#525252" stroke-width="0.943962" stroke-linecap="round" stroke-linejoin="round"/>
<path d="M17.3105 1.11133V5.12586" stroke="#FFB69D" stroke-width="0.943962" stroke-linecap="round" stroke-linejoin="round"/>
<path d="M8.95703 3.82422V7.73027" stroke="#FFB69D" stroke-width="0.943962" stroke-linecap="round" stroke-linejoin="round"/>
<path d="M25.667 3.82422V7.73027" stroke="#FFB69D" stroke-width="0.943962" stroke-linecap="round" stroke-linejoin="round"/>
</svg>
