<svg width="33" height="32" viewBox="0 0 33 32" fill="none" xmlns="http://www.w3.org/2000/svg">
<path d="M9.79117 27.4115C11.5889 27.4115 13.0462 25.7113 13.0462 23.614C13.0462 21.5166 11.5889 19.8164 9.79117 19.8164C7.99346 19.8164 6.53613 21.5166 6.53613 23.614C6.53613 25.7113 7.99346 27.4115 9.79117 27.4115Z" fill="#FF9B79"/>
<path d="M6.59666 20.901C6.21504 21.5043 5.99414 22.2194 5.99414 22.9861C5.99414 25.1434 7.74294 26.8922 9.90019 26.8922C12.0574 26.8922 13.8062 25.1434 13.8062 22.9861C13.8062 20.8289 12.0574 19.0801 9.90019 19.0801C9.48393 19.0801 9.08288 19.1452 8.70667 19.2658" stroke="#525252" stroke-width="0.943962" stroke-linecap="round" stroke-linejoin="round"/>
<path d="M22.8968 21.7073C23.0811 21.523 23.0811 21.2242 22.8968 21.0398L11.9255 10.0686C11.7412 9.88428 11.4424 9.88428 11.2581 10.0686L7.98971 13.3369C7.80539 13.5213 7.80539 13.8201 7.98971 14.0044L18.961 24.9757C19.1453 25.16 19.4441 25.16 19.6284 24.9757L22.8968 21.7073Z" stroke="#525252" stroke-width="0.943962" stroke-linecap="round" stroke-linejoin="round"/>
<path d="M24.3145 14.797L19.0195 9.50195L16.3004 12.2211L21.5954 17.5162L24.3145 14.797Z" fill="#FFB69D"/>
<path d="M15.8793 11.1158L14.8147 12.1805L20.6455 18.0113L23.9139 14.743L18.083 8.91211L17.5135 9.48164" stroke="#525252" stroke-width="0.943962" stroke-linecap="round" stroke-linejoin="round"/>
<path d="M1.42871 30.9001L6.41977 26.0176" stroke="#525252" stroke-width="0.943962" stroke-linecap="round" stroke-linejoin="round"/>
<path d="M21.7412 11.1443L25.6473 7.23828" stroke="#525252" stroke-width="0.943962" stroke-linecap="round" stroke-linejoin="round"/>
<path d="M25.7253 8.22748C25.3922 7.93222 25.1562 7.54435 25.0479 7.11421C24.9396 6.68406 24.9641 6.23152 25.1181 5.81534L26.8386 1.79511C26.9694 1.65337 27.13 1.54204 27.3091 1.46903C27.4881 1.39602 27.6812 1.36312 27.8745 1.37272C28.0678 1.38232 28.2566 1.43417 28.4275 1.52455C28.5983 1.61493 28.747 1.74164 28.8628 1.89562L32.1015 5.11182C32.2502 5.23443 32.3698 5.38804 32.4519 5.56175C32.534 5.73545 32.5765 5.92499 32.5765 6.11688C32.5765 6.30876 32.534 6.49827 32.4519 6.67198C32.3698 6.84568 32.2502 6.99933 32.1015 7.12194L28.1543 8.83052C27.7353 8.98343 27.2795 9.00771 26.8464 8.90017C26.4132 8.79264 26.0226 8.55825 25.7253 8.22748Z" fill="#FE6A38"/>
<path d="M24.5532 4.64182L24.2304 5.40131C24.0654 5.8506 24.0392 6.33914 24.1553 6.80351C24.2713 7.26787 24.5244 7.68659 24.8815 8.00534C25.2002 8.36243 25.6189 8.61546 26.0833 8.73155C26.5476 8.84764 27.0362 8.82143 27.4855 8.65635L31.717 6.81185C31.8764 6.67949 32.0046 6.51362 32.0926 6.3261C32.1806 6.13857 32.2263 5.93399 32.2263 5.72684C32.2263 5.51968 32.1806 5.31507 32.0926 5.12754C32.0046 4.94002 31.8764 4.77419 31.717 4.64182L28.245 1.16977C28.1208 1.00354 27.9614 0.866752 27.7783 0.769179C27.5951 0.671606 27.3927 0.615637 27.1855 0.605275C26.9782 0.594912 26.7713 0.630428 26.5793 0.709246C26.3873 0.788065 26.2151 0.908246 26.075 1.06126L25.5247 2.35602" stroke="#525252" stroke-width="0.943962" stroke-linecap="round" stroke-linejoin="round"/>
</svg>
